<svg version="1.1" id="Layer_1" xmlns="http://www.w3.org/2000/svg" x="0" y="0" viewBox="0 0 68 65" style="enable-background:new 0 0 68 65" xml:space="preserve"><style>.st0{fill:#f5871f}.st3{fill:#5aa7c1}</style><path class="st0" d="M54.19 32.38h11.28v16.14H54.19z"/><path d="M40.43 42.26c-.48 0-.91-.3-1.07-.75a2.27 2.27 0 0 0-2.89-1.38c-.28.1-.53.25-.75.45-.46.42-1.18.38-1.6-.09-.42-.46-.38-1.18.09-1.6 1.86-1.66 4.72-1.51 6.38.36.39.44.7.95.89 1.51.21.59-.1 1.23-.69 1.44-.11.04-.23.06-.36.06z" style="fill:#7fd1ed"/><path class="st0" d="M54.18 29.31h-1.13c-.62 0-1.13-.51-1.13-1.13 0-.62.51-1.13 1.13-1.13h1.13c.62 0 1.13.51 1.13 1.13 0 .62-.51 1.13-1.13 1.13z"/><path d="M62.09 29.31H58.7c-.62 0-1.13-.51-1.13-1.13 0-.62.51-1.13 1.13-1.13h3.39c.62 0 1.13.51 1.13 1.13 0 .62-.51 1.13-1.13 1.13zm4.52 24.86H56.44c-.62 0-1.13-.51-1.13-1.13 0-.62.51-1.13 1.13-1.13h10.17c.62 0 1.13.51 1.13 1.13 0 .62-.51 1.13-1.13 1.13zm-14.69 0h-3.39c-.62 0-1.13-.51-1.13-1.13 0-.62.51-1.13 1.13-1.13h3.39c.62 0 1.13.51 1.13 1.13 0 .62-.51 1.13-1.13 1.13z" style="fill:#4293d0"/><path class="st3" d="M64.35 22.67v-3.53c0-.62-.51-1.13-1.13-1.13h-2.26v-6.78h1.13c.62 0 1.13-.51 1.13-1.13V4.17c0-1.72-1.39-3.1-3.11-3.11h-5.08c-1.39 0-2.61.92-2.99 2.26h-9.16c-.39 0-.75.2-.96.53l-5.87 6.63c-.41.47-.37 1.18.1 1.59.03.03.07.06.11.09l3.72 2.56c.46.32 1.08.25 1.46-.16l4.18-4.46h6.29c0 .62.51 1.13 1.13 1.13h1.13v6.78h-2.26c-.62 0-1.13.51-1.13 1.13v3.53a4.536 4.536 0 0 0-3.39 4.38v27.11c-2.5 0-4.52 2.02-4.52 4.52s2.02 4.52 4.52 4.52c2.5 0 4.52-2.02 4.52-4.52H66.6c.62 0 1.13-.51 1.13-1.13v-30.5c0-2.06-1.39-3.86-3.38-4.38zm1.13 24.72H55.31V33.83h10.17v13.56zM54.18 4.17c0-.47.38-.85.85-.85h5.08c.47 0 .85.38.85.85v4.8h-6.78v-4.8zm-9.04 3.67c-.31 0-.61.13-.82.36l-3.86 4.11-1.87-1.29 4.82-5.44h8.51v2.26h-6.78zm11.3 3.39h2.26v6.78h-2.26v-6.78zm-3.39 9.04h9.04v2.26h-9.04v-2.26zM47.4 60.94c-1.25 0-2.26-1.01-2.26-2.26s1.01-2.26 2.26-2.26c1.25 0 2.26 1.01 2.26 2.26 0 1.25-1.01 2.26-2.26 2.26zm3.91-4.52c-.4-.68-.97-1.25-1.65-1.65v-.61h2.26c.62 0 1.13-.51 1.13-1.13 0-.62-.51-1.13-1.13-1.13h-2.26V27.05c0-1.25 1.01-2.26 2.26-2.26h11.3c1.25 0 2.26 1.01 2.26 2.26v4.52h-11.3c-.62 0-1.13.51-1.13 1.13v15.82c0 .62.51 1.13 1.13 1.13h11.3v2.26h-9.04c-.62 0-1.13.51-1.13 1.13 0 .62.51 1.13 1.13 1.13h9.04v2.26H51.31z"/><path class="st3" d="M35.21 24.8c1.67 1.12 3.94.67 5.05-1.01.78-1.17.82-2.69.09-3.9L38.2 16.3c-.32-.54-1.01-.71-1.55-.39-.16.1-.29.23-.39.39l-2.16 3.59a3.658 3.658 0 0 0 1.11 4.91zm.84-3.74 1.19-1.98 1.19 1.98c.39.66.18 1.51-.48 1.9-.66.39-1.51.18-1.9-.48-.27-.44-.27-.99 0-1.42zm-7.43 10.51c1.87 0 3.39-1.52 3.39-3.39s-1.52-3.39-3.39-3.39-3.39 1.52-3.39 3.39c.01 1.87 1.52 3.39 3.39 3.39zm0-4.52c.62 0 1.13.51 1.13 1.13 0 .62-.51 1.13-1.13 1.13-.62 0-1.13-.51-1.13-1.13 0-.62.51-1.13 1.13-1.13zm-10.59 0c2.5 0 4.52-2.02 4.52-4.52s-2.02-4.52-4.52-4.52-4.52 2.02-4.52 4.52c0 2.5 2.02 4.52 4.52 4.52zm0-6.78c1.25 0 2.26 1.01 2.26 2.26s-1.01 2.26-2.26 2.26c-1.25 0-2.26-1.01-2.26-2.26 0-1.25 1.01-2.26 2.26-2.26z"/><path class="st3" d="M43.52 33.46c-2.65-3.47-7.62-4.13-11.09-1.48-.53.4-1 .87-1.41 1.39a5.6 5.6 0 0 0-2.82-.76c-.06 0-.11.01-.17.01l-.06-.12a3.903 3.903 0 0 0-4.55-2c-3.39.97-6.48 2.8-8.94 5.32L1.47 31.03c-.59-.22-1.24.08-1.45.67-.05.13-.07.26-.07.39V51.3c0 .49.31.92.77 1.07l6.53 2.17 2.59 2.59c.94.94 2.12 1.59 3.41 1.89.08.02.17.03.25.03v2.41c0 1.87 1.52 3.39 3.39 3.39 1.16 0 2.24-.59 2.86-1.57 1.57.89 3.55.39 4.52-1.13 1.57.89 3.55.39 4.52-1.13 1.63.92 3.69.35 4.61-1.28.1-.17.18-.35.25-.54h1.32a3.393 3.393 0 0 0 3.15-4.64 3.389 3.389 0 0 0 2.26-4.52 3.386 3.386 0 0 0 1.66-5.5c3.47-2.65 4.13-7.61 1.48-11.08zm-41.31.25 10.66 3.93-.93 1.12-9.73-1.95v-3.1zm15.82 27.75c0 .62-.51 1.13-1.13 1.13-.62 0-1.13-.51-1.13-1.13v-5.65c0-.62.51-1.13 1.13-1.13.62 0 1.13.51 1.13 1.13v5.65zm4.52-1.13c0 .62-.51 1.13-1.13 1.13-.62 0-1.13-.51-1.13-1.13v-5.65c0-.62.51-1.13 1.13-1.13.62 0 1.13.51 1.13 1.13v5.65zm4.52-1.13c0 .62-.51 1.13-1.13 1.13-.62 0-1.13-.51-1.13-1.13v-5.65c0-.62.51-1.13 1.13-1.13.62 0 1.13.51 1.13 1.13v5.65zm4.51-1.13c0 .62-.51 1.13-1.13 1.13-.62 0-1.13-.51-1.13-1.13v-4.52c0-.62.51-1.13 1.13-1.13s1.13.51 1.13 1.13v4.52zm3.39-1.13h-1.13v-2.26h1.13a1.129 1.129 0 1 1 0 2.26zm4.52-9.03H29.32c-.62 0-1.13.51-1.13 1.13 0 .62.51 1.13 1.13 1.13h7.91c.62 0 1.13.51 1.13 1.13 0 .62-.51 1.13-1.13 1.13h-3.58a3.393 3.393 0 0 0-4.32-2.07c-.42.15-.8.38-1.13.67a3.385 3.385 0 0 0-4.78.26c-.12.14-.24.29-.34.44a3.38 3.38 0 0 0-4.52 1.13 3.379 3.379 0 0 0-4.61 1.28c-.29.51-.44 1.08-.44 1.67v.94c-.78-.22-1.49-.64-2.07-1.22l-2.78-2.78c-.12-.12-.28-.22-.44-.27l-6.01-2V39.12l9.95 1.99c.41.08.82-.07 1.09-.38l1.85-2.22c2.33-2.8 5.45-4.83 8.95-5.83.87-.25 1.77.25 2.02 1.12.22.75-.14 1.56-.84 1.91a8.05 8.05 0 0 0-3.58 3.58l-.11.21c-.28.56-.05 1.24.5 1.52.16.08.33.12.5.12h14.69c.62 0 1.13.51 1.13 1.13 0 .62-.51 1.13-1.13 1.13h-7.91c-.62 0-1.13.51-1.13 1.13 0 .62.51 1.13 1.13 1.13h10.17c.62 0 1.13.51 1.13 1.13 0 .61-.5 1.12-1.13 1.12zm2.69-6.92a5.6 5.6 0 0 1-1.6 1.82 3.37 3.37 0 0 0-3.34-3.95H24.67c.45-.47.98-.85 1.56-1.14a3.87 3.87 0 0 0 1.95-2.25c.06-.19.11-.39.15-.6.82.03 1.6.36 2.19.92.45.43 1.17.41 1.6-.04.07-.07.12-.15.17-.23a5.652 5.652 0 0 1 7.68-2.21c2.73 1.52 3.72 4.95 2.21 7.68z"/><path class="st3" d="M35.73 34c-.56.2-1.07.5-1.51.89-.46.42-.5 1.13-.09 1.6.42.46 1.13.5 1.6.09a2.26 2.26 0 0 1 3.19.18c.2.22.35.47.45.75.21.59.85.9 1.44.69.59-.21.9-.85.69-1.44A4.526 4.526 0 0 0 35.73 34z"/><path class="st0" d="M58.7 29.31h3.39c.62 0 1.13-.51 1.13-1.13 0-.62-.51-1.13-1.13-1.13H58.7c-.62 0-1.13.51-1.13 1.13 0 .62.51 1.13 1.13 1.13z"/></svg>