<svg width="60" height="65" xmlns="http://www.w3.org/2000/svg"><g fill="none" fill-rule="evenodd"><path d="M17.687 61.357c-8.657 0-15.7-7.043-15.7-15.7 0-8.656 7.043-15.7 15.7-15.7s15.7 7.044 15.7 15.7c0 8.657-7.043 15.7-15.7 15.7m0-33.387C7.934 27.97 0 35.905 0 45.657c0 9.753 7.934 17.688 17.687 17.688s17.687-7.935 17.687-17.688c0-9.752-7.934-17.687-17.687-17.687" fill="#5BA8C2"/><path d="M19.235 50.52a5.002 5.002 0 0 1-3.84-.326 5.002 5.002 0 0 1-2.485-2.945 5.002 5.002 0 0 1 .325-3.84 5.002 5.002 0 0 1 2.945-2.486 5.012 5.012 0 0 1 3.84.325 5.002 5.002 0 0 1 2.485 2.946 5.002 5.002 0 0 1-.325 3.84 5.003 5.003 0 0 1-2.945 2.485m7.422-8.775-2.636.84a6.973 6.973 0 0 0-2.254-2.625l1.285-2.487a1.007 1.007 0 1 0-1.789-.924l-1.29 2.497a6.972 6.972 0 0 0-3.423-.278l-.857-2.691a1.007 1.007 0 1 0-1.919.611l.857 2.691a6.973 6.973 0 0 0-2.632 2.205l-2.497-1.29a1.007 1.007 0 0 0-.925 1.788l2.487 1.286a6.971 6.971 0 0 0-.322 3.445l-2.636.84a1.007 1.007 0 1 0 .61 1.918l2.62-.834a6.973 6.973 0 0 0 2.233 2.694l-1.247 2.412a1.007 1.007 0 0 0 1.789.925l1.242-2.402a6.977 6.977 0 0 0 3.512.31l.816 2.564a1.008 1.008 0 0 0 1.919-.611l-.816-2.564a6.974 6.974 0 0 0 2.686-2.283l2.402 1.242a1.003 1.003 0 0 0 1.357-.432 1.007 1.007 0 0 0-.432-1.357l-2.413-1.248a6.974 6.974 0 0 0 .265-3.488l2.62-.834a1.007 1.007 0 0 0-.612-1.92" fill="#F80"/><path d="M15.88 44.384a.823.823 0 1 0-.5-1.567.823.823 0 0 0 .5 1.567m4.647-1.855a.822.822 0 1 0-1.567.499.822.822 0 0 0 1.567-.5m-2.678 1.934a.822.822 0 1 0 .499 1.568.822.822 0 0 0-.5-1.568m2.469 2.468a.822.822 0 1 0 .499 1.568.822.822 0 0 0-.5-1.568m-4.112 0a.823.823 0 1 0 .499 1.568.823.823 0 0 0-.5-1.568M33.254 59c-.206-.485-.787-.719-1.296-.522-.51.197-.755.75-.548 1.236l1.99 4.683c.157.369.53.593.922.593.125 0 .252-.023.374-.07.51-.197.755-.75.548-1.236L33.254 59Zm26.658 4.595-7.44-16.717a2.778 2.778 0 0 1 .063-2.355l3.376-6.51c.45-.894.717-1.852.795-2.85l.708-9.138a7.64 7.64 0 0 0-.165-2.283L54.967 13.74a.988.988 0 0 0-1.144-.753l-.605.113a5.928 5.928 0 0 0-4.025 2.37 5.968 5.968 0 0 0-1.096 4.59l1.068 6.008-1.536 2.923L35.63 2.723a4.383 4.383 0 0 0-2.42-2.34 4.366 4.366 0 0 0-3.371.059 4.376 4.376 0 0 0-2.057 1.837 4.404 4.404 0 0 0-5.12-1.2 4.427 4.427 0 0 0-2.617 4.572 4.36 4.36 0 0 0-2.742.255 4.383 4.383 0 0 0-2.343 2.432 4.4 4.4 0 0 0 .07 3.407l.021.044a4.363 4.363 0 0 0-2.52.3 4.428 4.428 0 0 0-2.285 5.813l.009.018 3.207 6.997a.987.987 0 0 0 1.31.486.992.992 0 0 0 .485-1.314l-3.203-6.986a2.427 2.427 0 0 1-.028-1.856 2.418 2.418 0 0 1 1.292-1.34 2.407 2.407 0 0 1 1.859-.033 2.416 2.416 0 0 1 1.352 1.33l4.842 10.124a.98.98 0 0 0 .1.16l.292.625a.987.987 0 0 0 1.314.476.992.992 0 0 0 .474-1.318l-6.726-14.355a2.426 2.426 0 0 1-.027-1.852 2.418 2.418 0 0 1 1.292-1.341 2.407 2.407 0 0 1 1.86-.032 2.416 2.416 0 0 1 1.347 1.32l9.031 19.386c.013.026.028.05.042.075.01.017.018.035.03.052.016.025.036.048.055.072l.031.041c.021.024.044.044.067.066l.034.032a.89.89 0 0 0 .079.058c.01.008.021.017.033.024a.794.794 0 0 0 .086.046l.036.02c.03.013.062.023.093.033l.036.014a1 1 0 0 0 .112.024c.008 0 .015.003.023.005a.987.987 0 0 0 .244.004l.034-.006a.871.871 0 0 0 .071-.011l.036-.01c.023-.006.046-.012.068-.02.015-.004.029-.011.043-.017a.5.5 0 0 0 .058-.023h.001l.002-.001.046-.025c.014-.007.029-.014.042-.022.015-.009.03-.02.044-.03l.038-.025c.014-.01.027-.022.04-.033l.036-.03c.012-.01.024-.023.036-.035.01-.011.022-.021.032-.033l.031-.038.03-.036c.01-.013.018-.027.027-.04l.026-.04.023-.042.022-.042.017-.042.02-.045.012-.041.016-.05.009-.043.01-.05.005-.044.006-.051v-.096l-.003-.046-.004-.05-.01-.05-.008-.047-.015-.052c-.005-.014-.008-.03-.013-.043-.006-.018-.014-.036-.022-.054l-.016-.04v-.002l-.003-.004-9.93-21.463a2.442 2.442 0 0 1 1.264-3.195 2.43 2.43 0 0 1 3.196 1.263l.01.022.698 1.508a4.479 4.479 0 0 0 .212.59l9.03 19.386.024.044.023.044.03.046.025.037.036.044.026.032.04.04c.01.009.018.019.029.028l.041.034c.01.01.021.019.033.027.013.01.028.019.042.028l.037.025.04.022.044.023c.011.006.024.01.036.016l.051.021.032.01.059.019.026.005.067.014.023.003c.024.003.048.006.072.007h.022a.61.61 0 0 0 .074.002l.023-.002c.025-.002.049-.003.073-.007.01 0 .02-.003.03-.005.021-.004.044-.007.066-.013l.038-.01c.019-.006.038-.01.057-.017l.048-.02c.015-.006.03-.011.044-.018h.001l.002-.001.048-.026.04-.02.045-.031.037-.025c.015-.01.029-.023.043-.035l.033-.027.039-.04c.01-.009.02-.018.029-.029l.034-.041.027-.033.029-.043.024-.037.023-.043.022-.04.018-.044.018-.044c.006-.015.01-.03.014-.044l.015-.047.01-.046.01-.047.004-.046.006-.05v-.095l-.003-.048-.004-.049-.01-.049-.008-.047c-.004-.017-.01-.034-.015-.05l-.013-.046-.02-.05c-.006-.015-.011-.029-.018-.042v-.003l-.002-.002-9.162-19.802a2.424 2.424 0 0 1 .111-1.422 2.417 2.417 0 0 1 1.292-1.34 2.407 2.407 0 0 1 1.86-.033 2.417 2.417 0 0 1 1.336 1.296l.008.017 12.29 26.905c.043.095.1.18.166.253-5.019 2.138-6.924 5.937-7.63 8.83-.8 3.277-.263 6.055-.24 6.172a.987.987 0 1 0 1.938-.387c-.005-.024-.478-2.522.237-5.382.935-3.736 3.389-6.337 7.292-7.733a.989.989 0 0 0 .543-.471l2.645-5.036a.993.993 0 0 0 .099-.635l-1.126-6.335a3.994 3.994 0 0 1 .735-3.068 3.968 3.968 0 0 1 2.471-1.552l2.072 9.081c.126.554.167 1.122.123 1.69l-.709 9.137a5.627 5.627 0 0 1-.583 2.1l-3.376 6.51a4.77 4.77 0 0 0-.113 4.058l7.444 16.726a.988.988 0 1 0 1.804-.808" fill="#5BA8C2"/></g></svg>