<svg version="1.1" id="Layer_1" xmlns="http://www.w3.org/2000/svg" x="0" y="0" viewBox="0 0 68 65" style="enable-background:new 0 0 68 65" xml:space="preserve"><style>.st0{fill:#f5871f}.st1{fill:#5aa7c1}</style><path class="st0" d="M57.66 64.45h-.09c-.56-.05-.97-.54-.92-1.1.07-.85.15-1.41.22-1.85.14-.97.15-1.08-.28-2.54-1.15-3.9 1.39-6.53 1.8-6.91 1.42-1.61 2.99-5.41 3.48-6.75a1.016 1.016 0 0 1 1.91.69c-.08.21-1.93 5.24-3.9 7.44-.02.03-.05.05-.08.08-.08.08-2.11 1.99-1.26 4.87.54 1.82.52 2.18.34 3.4-.06.41-.13.94-.2 1.74-.06.53-.5.93-1.02.93zM17.98 65C16.2 65 4.4 61.1 2.21 56.98c-.12-.23-.15-.49-.09-.73.31-1.19 3.17-11.72 7.7-14.28 1.06-.6 2.14-.74 3.21-.43.19.06.36.17.49.32.29.35 7.11 8.65 5.44 22.24-.05.44-.42.81-.85.89-.03.01-.08.01-.13.01zM4.2 56.35c1.99 2.85 10.06 5.7 12.86 6.45.97-10.8-3.84-17.95-4.9-19.37-.43-.05-.88.04-1.34.31-3.07 1.73-5.71 9.32-6.62 12.61z"/><path class="st0" d="M11.69 43.41a1.018 1.018 0 0 1-.34-1.98l7.81-2.76a1.018 1.018 0 1 1 .68 1.92l-7.81 2.76c-.12.04-.23.06-.34.06zm27.3 6c-9.43 0-10.47-9.7-10.48-9.8-.05-.56.36-1.05.91-1.11.55-.05 1.05.35 1.11.91.03.33.9 7.97 8.46 7.97H39c7.81 0 9.54-4.65 9.56-4.69a1.018 1.018 0 1 1 1.92.68c-.1.24-2.25 6.04-11.49 6.04.01 0 0 0 0 0z"/><path class="st1" d="M55.38 44.47c-1.82 0-11.23-.67-17.33-2.4-6.66-1.89-11.79-1.76-12.81-1.39-1.42.52-5.7.01-7.3-.2-1.11.31-3.87.97-5.31.14-.48-.28-.8-.7-.93-1.21a.986.986 0 0 1-.02-.38c.04-.26.33-1.59 2.49-2.35a1.018 1.018 0 1 1 .68 1.92c-.39.14-.65.29-.83.42.7.06 2.21-.14 3.55-.54.14-.04.29-.05.43-.03 2.6.36 5.84.59 6.54.33 1.71-.62 7.54-.5 14.06 1.35 6.18 1.75 16 2.38 16.81 2.33.56-.09 1.03.29 1.13.84.09.55-.32 1.08-.88 1.17-.05-.01-.14 0-.28 0z"/><path class="st1" d="M56.44 49.41c-.69 0-1.87-.14-2.99-.97-1.37-1.02-2.22-2.72-2.52-5.06-.07-.56.32-1.07.88-1.14.55-.07 1.07.32 1.14.88.22 1.75.79 2.98 1.69 3.66.97.73 2.02.59 2.06.58.04-.01.08-.01.12-.01 5.77-.23 6.28-4.16 6.74-7.62.08-.64.16-1.23.27-1.76.16-.81-.01-1.52-.52-2.18-.94-1.2-2.64-1.75-3.19-1.77-1.47-.07-3.4-1.06-3.81-1.28-3.75-1.49-12.8-1.03-12.89-1.03-.08.01-10.15.75-15.71.81-4.13.03-7.06-1.44-9.17-2.53-.81-.42-1.51-.78-2.05-.92-.59-.16-1.4-.28-1.88.06-.44.31-.49.94-.49.95-.04.55-.52.98-1.07.95-.56-.03-.98-.5-.96-1.05.01-.16.1-1.6 1.31-2.48.91-.66 2.12-.79 3.62-.4.75.2 1.54.61 2.45 1.08 2.02 1.05 4.52 2.35 8.22 2.31 5.5-.06 15.51-.8 15.61-.81.42-.02 9.69-.49 13.83 1.19.04.01.07.03.1.05.51.28 2.05 1.02 2.98 1.06 1.16.05 3.39.88 4.7 2.55.87 1.12 1.19 2.44.91 3.83-.1.49-.17 1.04-.25 1.62-.45 3.39-1.19 9.07-8.62 9.39-.1.02-.27.04-.51.04z"/><path class="st1" d="M11.55 34.05c-.41 0-.8-.26-.95-.67-.6-1.64-.5-2.86.29-3.63 1.36-1.32 4.01-.36 4.53-.15.52.21.77.8.57 1.32-.21.52-.8.77-1.32.57-.93-.37-2.13-.51-2.36-.28-.05.05-.17.45.21 1.48a1.013 1.013 0 0 1-.97 1.36z"/><path class="st1" d="M11.74 36.94a.96.96 0 0 1-.67-.26c-1.19-1.06-1.62-2.06-1.25-2.97.66-1.66 3.7-1.74 4.99-1.7a1.016 1.016 0 0 1-.07 2.03c-1.18-.04-2.53.15-2.97.4.07.13.25.36.64.71.42.37.46 1.01.09 1.43-.2.25-.48.36-.76.36zm-.02-2.6z"/><path class="st1" d="M12.26 39.75c-.71 0-1.28-.17-1.71-.51-.78-.61-.9-1.59-.94-1.91-.2-1.69 2.26-2.56 3.74-2.93.54-.14 1.09.19 1.23.74.14.54-.2 1.09-.74 1.23-.88.22-1.87.64-2.18.91.05.28.12.34.13.35.02.01.21.15.95.05.55-.08 1.07.31 1.14.87.08.56-.31 1.07-.87 1.14-.26.04-.51.06-.75.06z"/><path class="st0" d="M4.9 64.02c-.48 0-.91-.34-1-.83-.28-1.47-.04-4.49-.01-4.83.05-.56.53-.98 1.09-.93.56.05.97.54.93 1.09-.07.85-.21 3.27-.01 4.29a1.017 1.017 0 0 1-1 1.21z"/><path class="st1" d="M47.33 26.61c-1.3 0-2.46-.35-2.65-.42-.53-.17-.83-.74-.66-1.28.17-.53.75-.83 1.28-.66.56.18 2.38.57 3.33.07.5-.26 1.11-.07 1.37.42.26.5.07 1.11-.42 1.37-.69.38-1.5.5-2.25.5z"/><path class="st1" d="M57.24 33.09h-.1a1.02 1.02 0 0 1-.92-1.11c.01-.15.34-3.66.71-6.13.4-2.72 1.12-4.13 2.39-5.92 1.11-1.58 2.46-6.53.51-10.81-1.77-3.9-5.69-6.19-11.64-6.81C32.73.71 28.2 15.69 28.02 16.33c-.03.09-1.25 3.8.72 9.45.18.53-.1 1.11-.62 1.29-.53.18-1.11-.1-1.29-.62-2.22-6.37-.8-10.57-.74-10.74.03-.12 5.16-17.2 22.31-15.41 8.38.87 11.85 4.82 13.28 7.99 2.23 4.91.9 10.55-.7 12.82-1.11 1.57-1.69 2.72-2.04 5.05-.36 2.41-.69 5.98-.7 6.02a1 1 0 0 1-1 .91z"/><path class="st1" d="M44.76 22.52a1.016 1.016 0 0 1 0-2.03c1.24 0 4.8-.37 6.32-2.04.38-.41 1.02-.44 1.43-.07.41.38.45 1.02.07 1.43-2.44 2.68-7.6 2.71-7.82 2.71zm16.62-4.84c-4.67 0-8.98-3.48-11.26-6.51-1.67-2.21-2.68-4.08-2.72-4.16a1.01 1.01 0 0 1 .42-1.37 1.01 1.01 0 0 1 1.37.42c.01.02.97 1.81 2.55 3.89 2.2 2.9 6.14 5.78 9.83 5.7h.03c.55 0 1 .44 1.02.99.01.56-.43 1.03-.99 1.04h-.25z"/><path class="st1" d="M34.27 17.48c-1.14 0-2.26-.1-3.35-.31-.55-.11-.91-.65-.79-1.2.11-.55.64-.91 1.2-.79 8.11 1.64 19.63-4.63 19.74-4.69.49-.27 1.11-.09 1.38.4s.09 1.11-.4 1.38c-.44.23-9.57 5.21-17.78 5.21z"/><path class="st1" d="M34.86 28.27c-.09 0-.17-.01-.25-.01-1.23-.14-2-1.22-2.08-1.34-.04-.06-.08-.13-.11-.2-1.2-3.09-2.32-7.26-.89-9.53.57-.9 1.49-1.43 2.65-1.51 1.31-.1 2.38.24 3.13 1 1.18 1.18 1.08 2.89 1.07 3.08-.04.56-.53.97-1.09.93-.56-.04-.97-.53-.93-1.08.02-.27-.04-1.06-.49-1.5-.32-.31-.83-.45-1.54-.4-.67.05-.94.33-1.09.57-.73 1.15-.34 4.05 1.01 7.58.14.16.38.37.57.39.15 0 .32-.12.44-.23a1.02 1.02 0 0 1 1.43.04c.38.41.36 1.05-.04 1.44-.65.61-1.3.77-1.79.77zm18.09 3.76a1.014 1.014 0 0 1-.78-1.67c1.13-1.34 0-4.63-.49-5.68-.24-.51-.02-1.11.49-1.35s1.11-.02 1.35.49c.25.53 2.37 5.28.2 7.85-.2.23-.48.36-.77.36zm5.54-7.41c-.23 0-.46-.08-.65-.24-1.75-1.46-2.74-3.54-2.78-3.63-.24-.51-.02-1.11.49-1.35s1.11-.02 1.35.48c.01.02.85 1.77 2.24 2.94a1.02 1.02 0 0 1-.65 1.8zm-1.19 3.54a.98.98 0 0 1-.52-.15l-1.32-.8a1.011 1.011 0 1 1 1.05-1.73l1.32.8c.48.29.63.91.34 1.39-.19.32-.52.49-.87.49z"/></svg>